<?xml version="1.0" standalone="no"?><!DOCTYPE svg PUBLIC "-//W3C//DTD SVG 1.1//EN" "http://www.w3.org/Graphics/SVG/1.1/DTD/svg11.dtd"><svg t="1605674995600" class="icon" viewBox="0 0 1024 1024" version="1.1" xmlns="http://www.w3.org/2000/svg" p-id="1625" xmlns:xlink="http://www.w3.org/1999/xlink" width="200" height="200"><defs><style type="text/css"></style></defs><path d="M327.33 792.38l16.9 91.93c6.81 37.03 41.18 64.94 76.92 64.94H570.5c35.74 0 70.11-27.91 76.92-64.94l16.9-91.93H327.33z" fill="#F9E5AF" p-id="1626"></path><path d="M643.31 686.27H350.32c-0.67 0-1.31-0.07-1.9-0.2a75.14 75.14 0 0 0-4.19 14.37l-16.9 91.93h336.98l-16.9-91.93c-0.9-4.89-2.3-9.63-4.1-14.17z" fill="#B7CBEA" p-id="1627"></path><path d="M346.02 689.61a149.8 28.94 0 1 0 299.6 0 149.8 28.94 0 1 0-299.6 0Z" fill="#8095C4" p-id="1628"></path><path d="M381.2 692.13a114.62 17.16 0 1 0 229.24 0 114.62 17.16 0 1 0-229.24 0Z" fill="#887D64" p-id="1629"></path><path d="M126.64 685.78c-11.6 0-21.04-9.14-21.04-20.37s9.44-20.37 21.04-20.37 21.04 9.14 21.04 20.37-9.44 20.37-21.04 20.37z m0-31.28c-6.39 0-11.59 4.9-11.59 10.92s5.2 10.92 11.59 10.92 11.59-4.9 11.59-10.92-5.2-10.92-11.59-10.92z" fill="#EFE12A" p-id="1630"></path><path d="M649.2 425.34c-11.84 0-21.47-9.32-21.47-20.78s9.63-20.78 21.47-20.78 21.47 9.32 21.47 20.78c0 11.45-9.63 20.78-21.47 20.78z m0-32.11c-6.63 0-12.02 5.08-12.02 11.33s5.39 11.33 12.02 11.33 12.02-5.08 12.02-11.33-5.39-11.33-12.02-11.33z" fill="#F9B9A8" p-id="1631"></path><path d="M194.74 225.41a8.38 8.03 0 1 0 16.76 0 8.38 8.03 0 1 0-16.76 0Z" fill="#FEE5AD" p-id="1632"></path><path d="M870.45 172.78a11.42 10.95 0 1 0 22.84 0 11.42 10.95 0 1 0-22.84 0Z" fill="#F9B9A8" p-id="1633"></path><path d="M923.96 111.72a4.87 4.67 0 1 0 9.74 0 4.87 4.67 0 1 0-9.74 0Z" fill="#F76390" p-id="1634"></path><path d="M869.7 577.91a8.38 8.03 0 1 0 16.76 0 8.38 8.03 0 1 0-16.76 0Z" fill="#EFE12A" p-id="1635"></path><path d="M803.32 818.21a8.38 8.03 0 1 0 16.76 0 8.38 8.03 0 1 0-16.76 0Z" fill="#A8D383" p-id="1636"></path><path d="M749.15 664.66c-5.8 0-10.52-4.57-10.52-10.18s4.72-10.18 10.52-10.18 10.52 4.57 10.52 10.18-4.72 10.18-10.52 10.18z m0-15.64c-3.2 0-5.79 2.45-5.79 5.46s2.6 5.46 5.79 5.46 5.79-2.45 5.79-5.46-2.59-5.46-5.79-5.46z" fill="#96CF78" p-id="1637"></path><path d="M839.41 382.66h35.07c3.09 0 6.05-2.72 5.91-5.91-0.14-3.2-2.59-5.91-5.91-5.91h-35.07c-3.09 0-6.05 2.72-5.91 5.91 0.14 3.2 2.6 5.91 5.91 5.91z" fill="#00BBD2" p-id="1638"></path><path d="M850 362.91v27.69c0 3.09 2.72 6.05 5.91 5.91 3.2-0.14 5.91-2.59 5.91-5.91v-27.69c0-3.09-2.72-6.05-5.91-5.91-3.2 0.14-5.91 2.59-5.91 5.91zM277.66 556.23h30.94c2.47 0 4.84-2.17 4.72-4.72-0.11-2.56-2.08-4.72-4.72-4.72h-30.94c-2.47 0-4.84 2.17-4.72 4.72 0.11 2.56 2.07 4.72 4.72 4.72zM263.22 578.38h43.32c6.08 0 6.09-9.45 0-9.45h-43.32c-6.08 0-6.09 9.45 0 9.45z" fill="#00BBD2" p-id="1639"></path><path d="M97.73 181.28h27.51c2.47 0 4.84-2.17 4.72-4.72-0.11-2.56-2.08-4.72-4.72-4.72H97.73c-2.47 0-4.84 2.17-4.72 4.72 0.11 2.56 2.07 4.72 4.72 4.72z" fill="#96CF78" p-id="1640"></path><path d="M106.76 157.22v34.28c0 2.55 2.17 4.72 4.72 4.72 2.56 0 4.72-2.16 4.72-4.72v-34.28c0-2.55-2.17-4.72-4.72-4.72-2.56-0.01-4.72 2.16-4.72 4.72z" fill="#96CF78" p-id="1641"></path><path d="M198.52 800.19c-2.94 0-5.48-2.19-5.85-5.17a5.901 5.901 0 0 1 5.13-6.59c6.6-0.82 12-1.75 18.25-2.83l5.51-0.94a5.91 5.91 0 0 1 6.8 4.85 5.902 5.902 0 0 1-4.84 6.8l-5.47 0.93c-6.39 1.1-11.92 2.05-18.79 2.9-0.25 0.03-0.49 0.05-0.74 0.05z" fill="#BA85B0" p-id="1642"></path><path d="M367.87 380.78c-3.35-16.52-10.24-32.59-21.66-44.55-11.42-11.96-27.7-19.38-43.78-17.6-3.72 0.41-7.42 1.31-10.81 2.98-12.32 6.07-18.14 20.84-21.41 34.65-1.4 5.93-4.46 17.01-11.83 12.18-5.14-3.37-6.09-15.21-8.1-20.63-3.31-8.9-6.88-17.7-10.7-26.37-2.08-4.72-4.3-9.49-7.72-13.27-4.66-5.15-11.15-8.03-17.62-10.16-6.45-2.13-13.11-3.67-19.87-4.11-17.38-1.14-34.8 5.17-48.98 15.73s-25.29 25.17-33.73 41.08c-20.48 38.61-25.05 87.88-5.32 126.91 3 5.94 6.52 11.59 10.17 17.13 10.03 15.2 21.57 29.99 37.03 38.92 9.27 5.36 19.67 8.44 28.67 14.28 9 5.85 16.8 15.71 16.07 26.75l-0.36 3.2c4.01-18.55 14.57-35.47 29.2-46.78 7.62-5.89 16.26-10.29 23.66-16.49 13.68-11.46 23.99-29.45 41.23-32.77 4.34-0.84 8.8-0.63 13.2-1.05 14.65-1.41 28.1-9.94 37.97-21.33s16.46-25.48 21.47-39.93c2.37-6.84 4.43-13.89 4.83-21.16 0.33-5.9-0.44-11.82-1.61-17.61z m-218.32-19.4c11.21-0.82 23.14-1.48 32.97 4.21 0.48 0.28 0.98 0.6 1.22 1.11 0.54 1.14-0.42 2.42-1.38 3.21-5.93 4.89-13.97 5.7-21.52 6-4.83 0.19-21.62 3.01-23.79-2.83-2.45-6.58 8.19-11.39 12.5-11.7z m64.13 43.14c-0.25 1.05-1.24 1.69-2.15 2.19-11.89 6.5-25.75 7.57-38.51 11.91-18.89 6.42-34.78 19.79-50.2 32.88-5.89 5-11.68 10.55-17.93 15-10.34-13.54 24.63-32.7 32.89-38.56 17.88-12.7 37.28-23.88 58.7-28.27 5.17-1.06 10.93-1.6 15.32 1.43 1.12 0.76 2.21 2.06 1.88 3.42z m79.64 59.95c-0.84 4.9-3.49 10.25-8.2 11.04-5.23 0.88-9.46-4.27-12.14-9.05-5.18-9.23-21.51-37.38-14.7-47.54 8.96-13.37 26.67 11.94 30.6 19.63 4.03 7.9 5.96 17.12 4.44 25.92zM829.84 182.78c-6.14-14.18-15.13-26.9-25.51-38.06-27.8-29.92-66.15-48.9-105.92-52.44-15.87-1.41-32.53-0.27-46.51 7.69-13.76 7.82-24.23 23.45-22.95 39.7 1.84 0.69 2.56 3.81 1.16 5.47-1.59 1.89-4.58 1.81-6.64 0.51-2.07-1.3-3.43-3.5-4.73-5.62-5.58-9.17-11.16-18.34-16.74-27.52-10-16.42-22.4-34.5-40.9-36.73-6.45-0.78-12.96 0.54-19.23 2.31-8.88 2.5-18.2 6.48-22.85 14.77-4.42 7.88-3.52 17.94-0.46 26.5s8.02 16.23 11.67 24.53c7.88 17.92 9.34 38.06 12.68 57.47 5.43 31.54 16.12 62.08 31.46 89.84 6.14 11.12 13.14 21.93 22.43 30.34 19.58 17.72 46.73 22.66 72.54 25.08 20.86 1.96 44.04 3.75 58.37 19.71 11.09 12.36 13.99 30.39 14.44 47.32-0.37-14.2 0.5-30.33 8.24-42.02 5.45-8.22 14.02-13.45 21.93-19.08 19.51-13.88 36.53-31.98 48.55-53.12-3.76-16.42-16.89-29.19-30.1-39.37a291.322 291.322 0 0 0-34.16-22.71c-7.65-4.34-15.85-8.66-20.6-16.29-5.62-9.04-4.39-21.48 7.33-18.84 9.63 2.17 19.89 8.93 28.04 14.48 17.61 11.98 32.5 28.38 42.71 47.58 4.81 9.05 8.64 19.01 9.97 29.19 2.54-4.99 4.83-10.12 6.79-15.4 11.3-30.4 11.85-65.56-1.01-95.29z m-280.39-28.15c-6.02-1.34-9.66-7.44-4.37-13.39 10.17-11.44 36.65-3.31 46.61 3.87 1.98 1.43 4.07 3.75 3.22 6.09-4.35 0.41-8.72 0.73-13.08 1.04-9.45 0.7-23.16 4.44-32.38 2.39z m63.27 34.42c-0.35 3.34-5.56 6.78-7.53 9.27-3.48 4.39-6.33 9.59-8.98 14.55-5.13 9.59-9.16 19.83-11.95 30.42-1.83 6.95-3.2 14.22-7.01 20.23-2.88-6.54-7.25-12.23-10.74-18.43-3.5-6.2-6.17-13.36-5.15-20.48 0.92-6.39 4.68-11.89 8.33-17.11 2.46-3.52 4.93-7.05 7.9-10.1 3.66-3.78 37.12-27.27 35.13-8.35z m32.64 52.21c-5.5 31.11-6.77 63.03-3.77 94.51-6.59-1.73-8.36-10.39-9.46-17.39-2.66-16.95-8.61-33.3-10.01-50.42-0.9-11.03 0.42-22.86 5.41-32.75 4.51-8.93 17.11-17.87 18.5-1.23 0.21 2.44-0.24 4.88-0.67 7.28z m89.55 18.33c3.71 6.54 5.03 14.79 10.51 19.81 2.44 2.24 5.91 4.31 5.78 7.71-4.36-1.18-8.12-4.04-11.64-6.98-5.7-4.76-26.97-20.73-25.88-29.24 1.55-12.18 18.58 4.04 21.23 8.7z m49.57-65.45c-6.57-1.86-12.26-6.15-18.62-8.71-6.63-2.67-13.86-3.42-20.46-6.19-11-4.62-19.84-15.04-31.89-16.85 4.85-0.38 9.68 0.15 14.49 0.83 24.01 3.39 47.66 9.52 70.4 18.25 8.58 3.29 17.96 7.94 20.87 16.99-10.56-5.41-23.44-1.1-34.79-4.32z" fill="#478E55" p-id="1643"></path><path d="M628.99 140.48c-0.03-0.27-0.03-0.55-0.05-0.82-0.25-0.09-0.52-0.15-0.81-0.14-2.17 0.06 1.1 3.23 0.86 0.96z" fill="#478E55" p-id="1644"></path><path d="M486.64 129.1c-0.19-6.95-1.86-14.77-7.58-18.31-4.05-2.5-9.13-2.17-13.74-1.17-18.65 4.05-32.69 16.78-39.57 35.33 4.84-21.45-9.55-44.29-29.13-52.5s-42.41-3.86-60.9 6.75c-18.49 10.61-33.38 26.85-47.32 43.4-24.4 28.96-52.44 66.08-46.9 106.05 0.7-2.21 2.04-4.34 4.21-6.56 6.62-6.77 12.41-14.11 18.62-21.31 16.15-18.73 37.52-32.5 60.8-39.15 10.75-3.07 22.34-4.62 32.95-1.04-3.66 5.75-11 7.13-17.48 8.49-39.89 8.35-75.82 35.28-96.3 71.97 0.49 1.54 1.02 3.08 1.62 4.62 2.7 6.98 6.57 13.37 11.19 19.15 0.68-0.68 1.33-1.42 1.96-2.22 12.05-15.49 20.34-33.87 32.54-49.23 12.19-15.36 30.25-27.98 49.19-25.41-0.2 4.9-3.87 8.98-8.03 11.26-4.15 2.28-8.84 3.2-13.29 4.77-22.1 7.77-36.04 30.23-46.56 51.97-2.4 4.96-4.88 10.17-9.18 13.45-0.52 0.39-1.08 0.75-1.67 1.07 3.46 3.65 7.18 7.05 11.09 10.14 11.6 9.17 24.67 16.09 37.66 22.95-0.88-3.77-0.87-7.65-0.14-11.41 0.69-3.56 2.04-7 3.9-10.1-1.42-0.39-2.53-1.94-2.72-3.53-0.23-1.95 0.52-3.86 1.28-5.65 6.26-14.78 14-28.81 21.72-42.82 2.52-4.57 5.08-9.2 8.61-12.97 2.92-3.12 6.77-5.68 10.94-5.54 4.17 0.14 8.35 3.89 7.89 8.22-0.19 1.83-1.13 3.47-2.04 5.04-1.62 2.81-3.25 5.61-4.96 8.37a157.873 157.873 0 0 1-29.05 34.62c-0.9 1.63-1.86 3.23-2.83 4.81 2.76-1.86 5.83-3.2 9.11-3.81 6.21-1.15 12.57-0.03 18.87 0.14 17.98 0.46 35.37-6.97 50.79-16.65 23.79-14.95 44.15-35.71 59.3-59.99 14.87-23.85 25.96-54.37 25.15-83.2z m-139.9 28.62c-9.57 0.1-18.43 4.9-27.21 8.88-10.54 4.77-22.23 9.48-33.62 11.1 3.74-2.88 8.3-4.42 12.16-7.22 5.44-3.94 9.76-9.34 15.32-13.12 12.09-8.23 27.8-8.02 41.88-4.72 2.72 0.64 5.48 1.41 7.79 3.03-4.52 3.4-10.73 1.99-16.32 2.05z m20.35-25.48c-1.06 0.73-2.45 0.53-3.7 0.31-11.76-2.01-23.8-2.16-35.6-0.45-5.87 0.85-17.49 4.78-23.19 1.74-6.16-3.29-1.37-8.58 4.45-9.87 3.55-0.79 7.23 0.16 10.86 0.14 3.43-0.02 6.79-0.91 10.18-1.43 7.2-1.12 14.53-0.6 21.79-0.09 4.11 0.29 8.31 0.6 12.13 2.21 1.48 0.62 2.96 1.51 3.76 2.95s0.65 3.56-0.68 4.49z m36.09 86.55a689.5 689.5 0 0 1-2.55 20.29c-1.43 10.13-3.19 20.55-8.48 29.17-3.59 5.85-10.34 12.43-17.33 13.15-12.11 1.25-2.72-7.49 0.64-12.83 3.52-5.6 4.87-12.35 6.15-18.91 3.34-17.09 6.69-34.19 10.03-51.28 0.35-1.81 0.73-3.68 1.8-5.16s3.01-2.43 4.64-1.7c0.93 0.41 1.59 1.28 2.14 2.15 4.54 7.2 3.91 16.55 2.96 25.12z m35.15 10.5c-3.43-3.1-3.05-8.92-3.48-13.34-0.28-2.84-0.55-5.68-0.85-8.52-1.59-15.41-3.7-30.76-6.32-46.01 1.3-0.38 2.36 1.11 2.94 2.39 7.78 17.18 13.18 46.98 7.71 65.48z" fill="#6CAB81" p-id="1645"></path><path d="M441.85 215.7c2.98 37.87 9.86 75.51 14.91 113.16 5.22 38.9 8.88 77.94 12.19 117.04 6.59 77.73 6.02 155.14 5.98 233.04-0.01 11.08 16.18 10.8 17.02 0 6.1-77.97 1.94-157.54-5.18-235.31-3.47-37.87-9.03-75.61-15.41-113.09-6.58-38.64-14.08-78.23-27.56-115.1-0.35-0.98-2.05-0.93-1.95 0.26z" fill="#478E55" p-id="1646"></path><path d="M584.06 255.34c-21.27 31.23-31.85 68.35-42.81 104.26-11.07 36.26-20.36 73.02-28.55 110.04-16.39 74.13-29.48 150.12-33.49 226.02-0.78 14.66 20.72 13.93 22.37 0 8.95-75.25 18.57-150 34.84-224.1 7.97-36.29 17.19-72.32 27.05-108.14 9.72-35.33 22.37-70.13 25.84-106.66 0.28-3.01-3.83-3.51-5.25-1.42z" fill="#478E55" p-id="1647"></path><path d="M331.12 449.49c4.43 9.67 11.98 17.81 18.55 26.11 7.86 9.94 15.69 19.96 23.23 30.14 14.52 19.59 27.78 40.02 39.85 61.2 24.53 43.02 41.72 88.26 60.78 133.74 3.9 9.29 18.19 6.12 15.57-4.29-12.09-48.21-37.04-95.19-63.67-136.86-13.06-20.44-27.24-40.19-42.28-59.21-14.05-17.77-30.55-41.2-51.12-51.75-0.62-0.31-1.18 0.32-0.91 0.92z" fill="#478E55" p-id="1648"></path><path d="M670.13 496.98c-30.98 31.7-65.77 59.18-96.49 91.21-30.77 32.07-60.98 66.91-84.53 104.73-3.94 6.32 5.61 11.54 9.81 5.73 27.18-37.54 53.84-74.61 85.54-108.59 15.22-16.31 31.09-31.96 47.39-47.19 14.25-13.32 30.3-27.54 39.05-45.3 0.25-0.47-0.36-1.01-0.77-0.59z" fill="#478E55" p-id="1649"></path><path d="M496.26 525.5c-0.1-8.29-7.6-14.66-15.3-16.66-7.7-2-15.78-0.86-23.71-1.12-17.19-0.57-34.09-8.05-46.44-20.55-5.54-5.61-10.42-12.99-9.84-21.03 0.6-8.22 6.69-14.76 12.81-19.97 9.84-8.38 21.57-15.61 34.26-15.37 12.69 0.24 25.82 10.54 25.62 23.79 1.95-6.94 5.79-16.19 12.38-18.42 2.5-0.85 5.21-0.7 7.82-0.43 10.38 1.07 20.76 4.03 29.39 10.16s15.32 15.67 16.77 26.46c0.85 6.35-0.32 13.33-4.54 17.99-2.76 3.05-6.53 4.83-10.2 6.54-7.91 3.69-15.81 7.37-23.72 11.06-1.84 0.86-3.74 1.76-5.04 3.36-3.23 3.98-2.23 9.39-0.26 14.19zM606.46 593.72c0.38-0.33 0.48 0.78-0.01 0.72s-0.68-0.69-0.75-1.2c-1.33-9.22-9.99-15.05-18.02-19.12-4.32-2.19-9.66-4.18-13.66-1.41-3.62 2.52-8.35 2.6-12.61 1.64-6.96-1.57-13.6-6.04-16.56-12.8-2.96-6.77-1.36-15.8 4.53-19.98 5.9-4.17 15.5-1.45 17.54 5.68-2.64-4.08 1.14-10.81 5.08-13.52 3.94-2.7 8.92-2.99 13.64-3.03 9.89-0.08 19.9 0.58 29.34 3.69 6.39 2.11 12.67 5.53 16.56 11.23s4.76 14.03 0.68 19.58c-2.23 3.04-5.59 4.9-8.8 6.74-7.28 4.18-14.87 9.39-17.54 17.61-0.62 1.91-1.08 3.16 0.58 4.17z" fill="#A8D383" p-id="1650"></path><path d="M479.74 489.55c-4.69 53.82-3.61 108.3 1.65 162.03 0.74 7.52 1.55 15.03 2.43 22.54 0.91 7.71 1.45 15.69 3.26 23.24 1.31 5.47 10.07 4.36 9.86-1.33-0.24-6.73-1.5-13.48-2.3-20.17-0.8-6.73-1.55-13.47-2.23-20.22-1.35-13.31-2.55-26.63-3.53-39.97-1.98-26.88-3.12-53.83-3.75-80.77-0.35-15.11-0.39-30.23-0.45-45.34-0.01-3.24-4.66-3.13-4.94-0.01z" fill="#A8D383" p-id="1651"></path><path d="M564.31 569.85c-3.76 0.51-6.97 3.16-9.68 5.65-3.2 2.94-5.96 6.31-8.5 9.83-5.57 7.71-10.72 15.71-15.65 23.84-10.02 16.55-18.85 33.86-26.61 51.58-4.39 10.03-8.42 20.18-11.95 30.54-1.15 3.36 4.06 4.7 5.27 1.45 6.53-17.46 13.71-34.65 22.06-51.32 8.35-16.67 17.83-32.66 27.84-48.36 2.56-4.02 5.13-8.06 7.93-11.92 2.87-3.96 6.61-6.79 9.82-10.39 0.39-0.42-0.01-0.97-0.53-0.9z" fill="#A8D383" p-id="1652"></path><path d="M801.04 573.4c-15.32-20.74-33.15-40.47-59.26-43.52-14.6-1.71-29.52-0.25-43.93-3.26-20.49-4.27-39.03-17.88-49.81-36.57-3.17-5.5-5.74-11.62-5.79-18.04-0.09-12.46 14.06-23.13 25.48-22.96 10.91 0.16 18.47 11.02 24.19 20.72-1.62-3.54-2.62-10.55-2.66-14.48-0.03-3.92 2.03-8.16 5.65-9.22 1.96-0.57 4.05-0.15 6.04 0.3 29.25 6.71 57.43 21.45 76.98 45.14 19.56 23.69 30.4 51.56 23.11 81.89z" fill="#6CAB81" p-id="1653"></path><path d="M454.62 837.37m-11.13 0a11.13 11.13 0 1 0 22.26 0 11.13 11.13 0 1 0-22.26 0Z" fill="#6B493E" p-id="1654"></path><path d="M437.38 865.78m-11.13 0a11.13 11.13 0 1 0 22.26 0 11.13 11.13 0 1 0-22.26 0Z" fill="#FF917B" opacity=".44" p-id="1655"></path><path d="M541.61 865.78m-11.13 0a11.13 11.13 0 1 0 22.26 0 11.13 11.13 0 1 0-22.26 0Z" fill="#FF917B" opacity=".44" p-id="1656"></path><path d="M530.48 837.37m-11.13 0a11.13 11.13 0 1 0 22.26 0 11.13 11.13 0 1 0-22.26 0Z" fill="#6B493E" p-id="1657"></path><path d="M473.11 854.95c-1.84 0-3.4 1.45-3.4 3.28v0.03c0 11.65 9.48 21.1 21.18 21.1s21.18-9.45 21.18-21.1v-0.03c0-1.83-1.56-3.28-3.4-3.28h-35.56z" fill="#6B493E" p-id="1658"></path><path d="M482.92 875.66a7.96 3.7 0 1 0 15.92 0 7.96 3.7 0 1 0-15.92 0Z" fill="#F45F2A" p-id="1659"></path><path d="M634.32 152.51l11.82 23.34c0.86 1.71 3.27 2.2 4.85 1.27 1.74-1.02 2.14-3.13 1.27-4.85l-11.82-23.34c-0.86-1.71-3.27-2.2-4.85-1.27-1.73 1.02-2.14 3.14-1.27 4.85zM662.44 204.27c4.75 10.72 9.5 21.43 14.25 32.15 0.78 1.75 3.33 2.16 4.85 1.27 1.8-1.05 2.05-3.09 1.27-4.85-4.75-10.72-9.5-21.43-14.25-32.15-0.78-1.75-3.33-2.16-4.85-1.27-1.81 1.05-2.05 3.09-1.27 4.85zM693.59 277.57l7.77 25.14c0.57 1.83 2.47 2.99 4.36 2.47 1.81-0.5 3.04-2.52 2.47-4.36l-7.77-25.14c-0.57-1.83-2.47-2.99-4.36-2.47-1.81 0.5-3.04 2.53-2.47 4.36zM251.36 370.41c-6.4 7.32-11.18 15.88-13.98 25.2-0.53 1.77 0.64 3.94 2.47 4.36 1.91 0.43 3.79-0.57 4.36-2.47 2.42-8.04 6.66-15.78 12.16-22.07 1.26-1.44 1.42-3.59 0-5.01-1.29-1.3-3.75-1.46-5.01-0.01zM221.34 420.1c-6.53 8.48-11.34 18.23-14.22 28.54-1.23 4.4 5.61 6.28 6.83 1.88 2.73-9.76 7.33-18.82 13.51-26.85 1.17-1.52 0.23-3.97-1.27-4.85-1.83-1.06-3.68-0.25-4.85 1.28z" fill="#64AF6D" p-id="1660"></path><path d="M194.31 474.91c-4.75 5.16-7.57 11.56-8.39 18.51-0.22 1.85 1.78 3.62 3.54 3.54 2.1-0.09 3.31-1.56 3.54-3.54 0.06-0.48 0.06-0.04-0.03 0.16 0.06-0.14 0.05-0.37 0.08-0.52a29.072 29.072 0 0 1 1.32-5.1c0.12-0.33 0.25-0.66 0.38-0.98 0.16-0.41 0.01-0.12-0.05 0.12 0.05-0.2 0.18-0.41 0.27-0.6 0.59-1.27 1.28-2.5 2.05-3.68 0.19-0.29 0.39-0.58 0.6-0.87 0.1-0.14 0.21-0.28 0.31-0.43 0.28-0.41-0.39 0.48-0.07 0.09 0.47-0.58 0.95-1.15 1.46-1.7 1.26-1.36 1.45-3.68 0-5.01-1.36-1.25-3.67-1.45-5.01 0.01z" fill="#64AF6D" p-id="1661"></path><path d="M415.22 137.15c-10.21 4-18.9 10.84-25.13 19.88-1.09 1.58-0.29 3.93 1.27 4.85 1.76 1.03 3.76 0.31 4.85-1.27 2.43-3.53 5.76-7.03 9.43-10.03 0.1-0.08 0.44-0.35 0.15-0.13 0.24-0.19 0.49-0.37 0.74-0.55 0.49-0.36 1-0.72 1.5-1.06a43.2 43.2 0 0 1 2.96-1.86c1.06-0.62 2.14-1.2 3.25-1.73 0.5-0.24 1-0.47 1.5-0.7 0.14-0.06 0.76-0.33 0.34-0.15 0.34-0.14 0.68-0.28 1.02-0.41 1.78-0.7 3.02-2.37 2.47-4.36-0.46-1.71-2.56-3.19-4.35-2.48z" fill="#5C9B6F" p-id="1662"></path><path d="M384.1 169.27c-7.86 4.91-13.76 12.35-16.87 21.06-0.62 1.75 0.7 3.96 2.47 4.36 1.99 0.45 3.69-0.6 4.36-2.47 0.17-0.46 0.34-0.92 0.52-1.38 0.34-0.88-0.18 0.39 0.04-0.11 0.1-0.22 0.2-0.45 0.3-0.67 0.41-0.89 0.85-1.77 1.34-2.63 0.48-0.86 1-1.7 1.54-2.51 0.27-0.41 0.56-0.81 0.85-1.21 0.17-0.24 0.35-0.48 0.53-0.71-0.3 0.39-0.12 0.15 0.09-0.09 1.24-1.53 2.6-2.96 4.06-4.27 0.37-0.33 0.74-0.65 1.12-0.96 0.19-0.16 0.38-0.31 0.57-0.46-0.38 0.31-0.15 0.12 0.1-0.07 0.83-0.62 1.68-1.2 2.56-1.74 1.57-0.98 2.33-3.21 1.27-4.85-1.02-1.59-3.17-2.34-4.85-1.29z" fill="#5C9B6F" p-id="1663"></path><path d="M361.01 203.81c-6.05 2.58-10.66 7.88-12.88 14.01-0.63 1.74 0.71 3.96 2.47 4.36 2 0.46 3.68-0.61 4.36-2.47 0.12-0.34 0.25-0.67 0.39-1-0.12 0.28-0.24 0.56-0.36 0.85 0.5-1.18 1.11-2.31 1.83-3.38 0.18-0.27 0.37-0.54 0.57-0.81 0.34-0.47-0.44 0.55-0.17 0.22 0.09-0.12 0.19-0.23 0.28-0.35 0.42-0.51 0.86-0.99 1.32-1.46 0.44-0.44 0.91-0.87 1.39-1.27 0.11-0.1 0.23-0.19 0.35-0.28 0.53-0.44-0.71 0.52-0.15 0.12 0.24-0.17 0.48-0.35 0.73-0.52 1.09-0.74 2.25-1.37 3.45-1.88 0.76-0.32 1.42-1.36 1.63-2.12 0.23-0.85 0.13-1.98-0.36-2.73-0.49-0.76-1.21-1.42-2.12-1.63-1-0.25-1.81-0.06-2.73 0.34z" fill="#5C9B6F" p-id="1664"></path><path d="M329.87 240.02c-2.31 3.08-4.62 6.15-6.93 9.23-0.52 0.69-0.57 1.94-0.36 2.73 0.23 0.82 0.86 1.71 1.63 2.12 0.82 0.43 1.82 0.65 2.73 0.36 0.28-0.12 0.56-0.24 0.85-0.36 0.53-0.32 0.96-0.74 1.27-1.27 2.31-3.08 4.62-6.15 6.93-9.23 0.52-0.69 0.57-1.94 0.36-2.73-0.23-0.82-0.86-1.71-1.63-2.12-0.82-0.43-1.82-0.65-2.73-0.36-0.28 0.12-0.56 0.24-0.85 0.36-0.53 0.32-0.95 0.74-1.27 1.27z" fill="#5C9B6F" p-id="1665"></path><path d="M692.95 475.85c1.11 0.22 2.21 0.51 3.29 0.88 0.25 0.09 0.5 0.18 0.75 0.28 0.12 0.05 0.25 0.1 0.37 0.15 0.67 0.26-0.59-0.26-0.2-0.08 0.51 0.24 1.03 0.47 1.53 0.74 0.97 0.51 1.91 1.1 2.8 1.74 0.13 0.09 0.3 0.19 0.4 0.3-0.08-0.08-0.61-0.49-0.24-0.19 0.21 0.17 0.41 0.34 0.62 0.51 0.46 0.39 0.9 0.8 1.32 1.22 1.32 1.3 3.71 1.42 5.01 0 1.29-1.41 1.41-3.62 0-5.01-3.74-3.7-8.6-6.35-13.78-7.36-0.95-0.18-1.88-0.14-2.73 0.36-0.74 0.43-1.44 1.27-1.63 2.12-0.39 1.73 0.54 3.96 2.49 4.34z" fill="#5C9B6F" p-id="1666"></path><path d="M718.66 487.15c3.83 2.27 7.67 4.55 11.5 6.82 1.6 0.95 3.96 0.41 4.85-1.27 0.9-1.71 0.43-3.84-1.27-4.85-3.83-2.27-7.67-4.55-11.5-6.82-1.6-0.95-3.96-0.41-4.85 1.27-0.91 1.71-0.44 3.84 1.27 4.85z" fill="#5C9B6F" p-id="1667"></path><path d="M747.36 503.66a59.12 59.12 0 0 1 7.38 4.01c1.16 0.74 2.3 1.53 3.4 2.35 0.13 0.1 0.27 0.2 0.4 0.3 0.36 0.27 0.03 0.07-0.12-0.1 0.22 0.24 0.54 0.42 0.79 0.62 0.59 0.47 1.16 0.96 1.73 1.45 1.4 1.22 3.65 1.48 5.01 0 1.22-1.33 1.49-3.71 0-5.01-4.53-3.94-9.55-7.27-15.01-9.76-0.89-0.41-1.75-0.63-2.73-0.36-0.82 0.23-1.71 0.86-2.12 1.63-0.82 1.58-0.53 4.05 1.27 4.87z" fill="#5C9B6F" p-id="1668"></path><path d="M778.59 528.51a56.866 56.866 0 0 1 2.55 3.01c0.04 0.05 0.43 0.56 0.21 0.26a55.856 55.856 0 0 1 5.69 9.29c0.37 0.76 0.72 1.52 1.05 2.29 0.27 0.61-0.08-0.21 0.07 0.17 0.08 0.2 0.16 0.39 0.24 0.59 0.17 0.44 0.34 0.88 0.51 1.33 0.64 1.73 2.43 3.1 4.36 2.47 1.7-0.55 3.16-2.5 2.47-4.36-2.75-7.43-6.82-14.2-12.15-20.07-1.25-1.38-3.76-1.36-5.01 0-1.34 1.48-1.32 3.55 0.01 5.02z" fill="#5C9B6F" p-id="1669"></path></svg>