<?xml version="1.0" standalone="no"?><!DOCTYPE svg PUBLIC "-//W3C//DTD SVG 1.1//EN" "http://www.w3.org/Graphics/SVG/1.1/DTD/svg11.dtd"><svg t="1605662930175" class="icon" viewBox="0 0 1024 1024" version="1.1" xmlns="http://www.w3.org/2000/svg" p-id="891" xmlns:xlink="http://www.w3.org/1999/xlink" width="200" height="200"><defs><style type="text/css"></style></defs><path d="M554.666667 554.666667 768 554.666667 768 640 554.666667 640M554.666667 384 768 384 768 469.333333 554.666667 469.333333M294.826667 316.16 490.666667 512 294.826667 708.266667 234.666667 647.68 370.346667 512 234.666667 376.32M213.333333 128C165.973333 128 128 166.4 128 213.333333L128 810.666667C128 857.6 166.4 896 213.333333 896L810.666667 896C857.6 896 896 857.6 896 810.666667L896 213.333333C896 166.4 857.6 128 810.666667 128L213.333333 128Z" p-id="892"></path></svg>